<svg width="16" height="16" viewBox="0 0 16 16" fill="none" xmlns="http://www.w3.org/2000/svg">
<g clip-path="url(#clip0_106_872)">
<path d="M8 15C6.14348 15 4.36301 14.2625 3.05025 12.9497C1.7375 11.637 1 9.85652 1 8C1 6.14348 1.7375 4.36301 3.05025 3.05025C4.36301 1.7375 6.14348 1 8 1C9.85652 1 11.637 1.7375 12.9497 3.05025C14.2625 4.36301 15 6.14348 15 8C15 9.85652 14.2625 11.637 12.9497 12.9497C11.637 14.2625 9.85652 15 8 15ZM8 16C10.1217 16 12.1566 15.1571 13.6569 13.6569C15.1571 12.1566 16 10.1217 16 8C16 5.87827 15.1571 3.84344 13.6569 2.34315C12.1566 0.842855 10.1217 0 8 0C5.87827 0 3.84344 0.842855 2.34315 2.34315C0.842855 3.84344 0 5.87827 0 8C0 10.1217 0.842855 12.1566 2.34315 13.6569C3.84344 15.1571 5.87827 16 8 16Z" fill="url(#paint0_linear_106_872)"/>
<path d="M10.9699 4.97001L10.9499 4.99201L7.47685 9.41701L5.38385 7.32301C5.24168 7.19053 5.05363 7.1184 4.85933 7.12183C4.66503 7.12526 4.47964 7.20397 4.34223 7.34138C4.20482 7.4788 4.1261 7.66418 4.12268 7.85848C4.11925 8.05278 4.19137 8.24083 4.32385 8.38301L6.96985 11.03C7.04113 11.1012 7.12601 11.1572 7.21943 11.1949C7.31285 11.2325 7.4129 11.2509 7.5136 11.2491C7.61429 11.2472 7.71359 11.2251 7.80555 11.184C7.89751 11.1429 7.98025 11.0838 8.04885 11.01L12.0409 6.02001C12.1768 5.87734 12.2511 5.6869 12.2477 5.48987C12.2444 5.29285 12.1636 5.10505 12.0229 4.9671C11.8822 4.82915 11.6928 4.75211 11.4958 4.75266C11.2987 4.7532 11.1098 4.83128 10.9699 4.97001Z" fill="url(#paint1_linear_106_872)"/>
</g>
<defs>
<linearGradient id="paint0_linear_106_872" x1="8" y1="0" x2="8" y2="16" gradientUnits="userSpaceOnUse">
<stop stop-color="#00B8C8"/>
<stop offset="1" stop-color="#00D9B3"/>
</linearGradient>
<linearGradient id="paint1_linear_106_872" x1="8.1852" y1="4.75266" x2="8.1852" y2="11.2492" gradientUnits="userSpaceOnUse">
<stop stop-color="#00B8C8"/>
<stop offset="1" stop-color="#00D9B3"/>
</linearGradient>
<clipPath id="clip0_106_872">
<rect width="16" height="16" fill="white"/>
</clipPath>
</defs>
</svg>
